<?xml version="1.0" encoding="UTF-8"?>
<svg id="Capa_1" xmlns="http://www.w3.org/2000/svg" version="1.1" viewBox="0 0 47 47">
  <!-- Generator: Adobe Illustrator 29.8.10, SVG Export Plug-In . SVG Version: 2.1.1 Build 2)  -->
  <defs>
    <style>
      .st0 {
        fill: #fff;
      }

      .st1 {
        fill: #0a824a;
      }

      .st2 {
        fill: #06406c;
      }
    </style>
  </defs>
  <circle class="st0" cx="23.5" cy="23.5" r="23.5"/>
  <g>
    <path class="st2" d="M15.9,23c-.7,4.5-1.5,8.9-2,13.5-.8.3-5.4,2.3-5.9,1.9l3.2-23.6c0-3.7,4.1-7.9,7.7-7.9h19.5c-2.1,7.6-11.7,4.4-17.6,5s-3.7,2.1-4.2,4.5,0,1.2,0,1.8c-.3,1.6-.5,3.2-.7,4.8Z"/>
    <path class="st1" d="M16.7,18.2h16.3c-.2,2.9-3.5,4.6-6.1,4.8s-7.4-.2-10.9,0c.2-1.6.5-3.2.7-4.8Z"/>
    <path class="st1" d="M28.4,25.9v5.4c0,.2-2.5,2-2.9,2.3v-7.7h2.9Z"/>
    <path class="st1" d="M23.8,29.5v5.2c0,.4-2.2,1.3-2.6,1.6v-6.7h2.6Z"/>
    <rect class="st1" x="16.7" y="32.6" width="2.6" height="4.3"/>
    <path class="st1" d="M35.9,21.4c-.3.2-.3.6,0,.7s.7.3.8.5c0,.2.3-.1.5-.4-.3.4-.7,1.1-1.3,2-3.3,5.2-11.5,13.9-18,14.3-1.5,0-3-.4-4.3-.2-.3,0-1.9.3-2.2.7,1.1.9,2.7,1.5,4.5,1.6.7,0,1.1,0,2,0s.7-.1.7-.1c.6-.1.6-.1,1.7-.5,1.1-.3,1.2-.5,4.1-2.1,3.4-1.9,6.8-5.1,9.3-8,1.6-1.9,3-3.9,4.4-5.9.5-.3.8,0,1.2.4s.7,0,.7-.3v-4c0-.3-.3-.5-.6-.4l-3.7,1.8Z"/>
  </g>
</svg>